<svg width="30" height="30" viewBox="0 0 30 30" fill="none" xmlns="http://www.w3.org/2000/svg">
<g id="icon">
<g id="Group">
<path id="Vector" d="M17.638 2.07275H10.9216C10.7104 2.07275 10.5391 2.24404 10.5391 2.45529V9.43917C10.5391 9.73036 10.8519 9.91535 11.1066 9.77375L14.161 8.07803C14.2786 8.01294 14.4214 8.01408 14.5378 8.08145L17.4461 9.75891C17.7008 9.90621 18.0194 9.72237 18.0194 9.42776V2.45529C18.0194 2.24404 17.8481 2.07275 17.6368 2.07275H17.638ZM25.3558 3.0468C24.8282 3.0468 24.4 3.47501 24.4 4.00257V21.9853C24.4 22.5128 24.8282 22.941 25.3558 22.941C25.8833 22.941 26.3115 22.5128 26.3115 21.9853V4.00257C26.3115 3.47501 25.8833 3.0468 25.3558 3.0468Z" fill="white"/>
<path id="Vector_2" d="M24.6964 24.9922H7.00792C6.45412 24.9922 6.00651 24.5435 6.00651 23.9908C6.00651 23.4381 6.45526 22.9893 7.00792 22.9893H21.747C22.1695 22.9893 22.512 22.6468 22.512 22.2243V2.76508C22.512 2.34257 22.1695 2 21.747 2H19.9234C19.9234 2.02512 19.9303 2.04796 19.9303 2.07423V10.0904C19.9303 10.7732 19.566 11.4047 18.9746 11.7462C18.6788 11.9174 18.3488 12.0031 18.0188 12.0031C17.6888 12.0031 17.3588 11.9174 17.0642 11.7473L14.3318 10.1715L11.4657 11.7621C11.1768 11.922 10.8571 12.0019 10.5385 12.0019C10.2028 12.0019 9.86826 11.914 9.56909 11.7382C8.9856 11.3944 8.62706 10.7675 8.62706 10.0904V2.07423C8.62706 2.0491 8.63392 2.02512 8.63392 2H6.05903C4.37023 2 3 3.36915 3 5.05916V24.9408C3 26.6297 4.36909 28 6.05903 28H24.6964C25.5265 28 26.1991 27.3274 26.1991 26.4973C26.1991 25.6671 25.5265 24.9945 24.6964 24.9945V24.9922ZM9.77235 16.6015H19.7122C20.1347 16.6015 20.4772 16.9441 20.4772 17.3666C20.4772 17.7891 20.1347 18.1317 19.7122 18.1317H9.77235C9.34986 18.1317 9.00731 17.7891 9.00731 17.3666C9.00731 16.9441 9.34986 16.6015 9.77235 16.6015Z" fill="white"/>
</g>
</g>
</svg>
