<svg width="30" height="30" viewBox="0 0 30 30" fill="none" xmlns="http://www.w3.org/2000/svg">
<g id="icon">
<g id="Group">
<path id="Vector" d="M11.5256 13.7962C15.0405 13.7962 17.889 10.9476 17.889 7.43275C17.889 3.91789 15.0393 1.06934 11.5256 1.06934C8.0119 1.06934 5.1622 3.91904 5.1622 7.43275C5.1622 10.9465 8.01075 13.7962 11.5256 13.7962ZM18.5346 15.7744C18.3144 15.7455 18.0919 15.7259 17.8648 15.7259H15.5996C15.0958 15.7259 14.6232 15.9726 14.3338 16.3853L12.7499 18.6529C12.1308 19.5394 10.8143 19.5313 10.2068 18.6356L8.6909 16.4026C8.40386 15.9795 7.92544 15.7259 7.4136 15.7259H5.18872C2.32288 15.7259 0 18.0488 0 20.9146V23.2168C0 23.6433 0.345839 23.9891 0.772372 23.9891H15.7587L18.5357 19.959V15.7744H18.5346ZM6.9548 21.853H3.86646C3.33387 21.853 2.90158 21.4207 2.90158 20.8881C2.90158 20.3555 3.33387 19.9232 3.86646 19.9232H6.9548C7.48739 19.9232 7.91968 20.3555 7.91968 20.8881C7.91968 21.4207 7.48739 21.853 6.9548 21.853ZM29.6694 26.0769L26.196 21.0357C25.9816 20.7256 25.8675 20.3567 25.8675 19.9797V14.5582C25.8675 14.4302 25.7637 14.3253 25.6346 14.3253H20.6961C20.5681 14.3253 20.4632 14.429 20.4632 14.5582V19.9797C20.4632 20.3567 20.3491 20.7244 20.1347 21.0357L16.6613 26.0769C15.8105 27.3115 16.6947 28.9934 18.1934 28.9934H28.1362C29.6348 28.9934 30.519 27.3115 29.6683 26.0769H29.6694Z" fill="white"/>
<path id="Vector_2" d="M25.4768 10.4668H20.8449C20.2051 10.4668 19.6875 10.9856 19.6875 11.6242C19.6875 12.2629 20.2063 12.7816 20.8449 12.7816H25.4768C26.1166 12.7816 26.6342 12.2629 26.6342 11.6242C26.6342 10.9856 26.1155 10.4668 25.4768 10.4668Z" fill="white"/>
</g>
</g>
</svg>
