<svg width="30" height="30" viewBox="0 0 30 30" fill="none" xmlns="http://www.w3.org/2000/svg">
<g id="icon">
<g id="Group">
<path id="Vector" d="M4.14482 21.497V16.9856L2.76624 16.1938V21.4579C2.13616 21.7143 1.69141 22.331 1.69141 23.0527C1.69141 24.005 2.46253 24.7761 3.41486 24.7761C4.36719 24.7761 5.13832 24.004 5.13832 23.0527C5.13832 22.3629 4.73063 21.7719 4.14482 21.497Z" fill="white"/>
<path id="Vector_2" d="M15.0029 22.7511C14.4644 22.7511 13.9342 22.609 13.4678 22.3413L5.85231 17.9658V21.4024C5.88731 21.425 5.91923 21.4508 5.95629 21.4713L13.6295 25.8799C14.4799 26.3689 15.5269 26.3689 16.3773 25.8799L24.0505 21.4713C24.9061 20.9792 25.4342 20.0671 25.4342 19.0797V17.2296L16.5389 22.3403C16.0726 22.608 15.5413 22.75 15.0039 22.75L15.0029 22.7511ZM28.3211 11.2284L16.3763 4.36651C15.9511 4.12251 15.4765 4 15.0029 4C14.5293 4 14.0547 4.12251 13.6295 4.36651L1.68572 11.2284C0.776635 11.7504 0.776635 13.062 1.68572 13.584L14.3275 20.8464C14.5365 20.9669 14.7702 21.0266 15.0039 21.0266C15.2376 21.0266 15.4713 20.9669 15.6803 20.8464L28.3221 13.584C29.2312 13.062 29.2312 11.7504 28.3221 11.2284H28.3211Z" fill="white"/>
</g>
</g>
</svg>
