<svg width="30" height="30" viewBox="0 0 30 30" fill="none" xmlns="http://www.w3.org/2000/svg">
<g id="icon">
<path id="Vector" d="M23.9832 7.6658L21.9171 4.93912C21.9171 4.93912 20.3757 4 15.0972 4C15.0648 4 15.0389 4 15.0065 4C14.9741 4 14.9482 4 14.9158 4C9.63731 4 8.09586 4.93912 8.09586 4.93912L6.02979 7.6658L0 9.86787L2 26.2345H28L30 9.86787L23.9702 7.6658H23.9832ZM11.7746 24.2526H3.98834L1.98834 11.2474L6.35363 9.65414C7.66192 12.1347 10.0712 14.1619 10.1814 14.2591L10.9067 14.8614L12.4741 13.1516L13.6852 14.9456L11.7746 24.2396V24.2526ZM13.057 9.59586L10.7578 12.1023C10.1684 11.5324 9.31347 10.6256 8.62047 9.59586C8.48446 9.3886 8.34844 9.18135 8.23186 8.96762C8.12823 8.78627 8.03109 8.60492 7.9469 8.4171L9.17099 6.37694C9.68912 6.97927 10.7189 7.6399 12.0013 8.11917C12.6813 8.37176 13.3485 8.54663 13.9378 8.63083L13.057 9.59586ZM18.0181 8.11917C19.3005 7.6399 20.3368 6.97927 20.8485 6.37694L22.0725 8.4171C21.9883 8.60492 21.8912 8.78627 21.7876 8.96762C21.6645 9.18135 21.535 9.3886 21.399 9.59586C20.706 10.6256 19.851 11.5324 19.2617 12.1023L16.9624 9.59586L16.0816 8.63083C16.671 8.54663 17.3381 8.37176 18.0181 8.11917ZM26.0311 24.2526H18.2448L16.3342 14.9585L17.5453 13.1645L19.1127 14.8744L19.8381 14.272C19.9547 14.1749 22.364 12.1477 23.6658 9.6671L28.0311 11.2604L26.0311 24.2655V24.2526Z" fill="#1428A0"/>
</g>
</svg>
