<svg width="30" height="30" viewBox="0 0 30 30" fill="none" xmlns="http://www.w3.org/2000/svg">
<g id="icon">
<path id="Vector" d="M23.3843 8.16263L21.456 5.61772C21.456 5.61772 20.0173 4.74121 15.0907 4.74121C15.0605 4.74121 15.0363 4.74121 15.006 4.74121C14.9758 4.74121 14.9516 4.74121 14.9214 4.74121C9.99482 4.74121 8.55613 5.61772 8.55613 5.61772L6.62781 8.16263L1 10.2179L2.86667 25.4934H27.1333L29 10.2179L23.3722 8.16263H23.3843ZM11.9896 23.6436H4.72245L2.85578 11.5055L6.93005 10.0184C8.15112 12.3336 10.3998 14.2257 10.5026 14.3163L11.1796 14.8785L12.6425 13.2827L13.7729 14.9571L11.9896 23.6315V23.6436ZM13.1865 9.96401L11.0406 12.3034C10.4905 11.7714 9.69257 10.9251 9.04577 9.96401C8.91883 9.77057 8.79188 9.57713 8.68307 9.37765C8.58635 9.2084 8.49569 9.03914 8.4171 8.86384L9.55959 6.95969C10.0432 7.52187 11.0043 8.13845 12.2012 8.58577C12.8359 8.82152 13.4586 8.98474 14.0086 9.06332L13.1865 9.96401ZM17.8169 8.58577C19.0138 8.13845 19.981 7.52187 20.4586 6.95969L21.601 8.86384C21.5225 9.03914 21.4318 9.2084 21.3351 9.37765C21.2202 9.57713 21.0993 9.77057 20.9724 9.96401C20.3256 10.9251 19.5276 11.7714 18.9776 12.3034L16.8316 9.96401L16.0095 9.06332C16.5596 8.98474 17.1822 8.82152 17.8169 8.58577ZM25.2957 23.6436H18.0285L16.2453 14.9692L17.3757 13.2948L18.8385 14.8906L19.5156 14.3284C19.6244 14.2378 21.8731 12.3457 23.0881 10.0305L27.1624 11.5175L25.2957 23.6557V23.6436Z" fill="white"/>
</g>
</svg>
