<svg width="30" height="30" viewBox="0 0 30 30" fill="none" xmlns="http://www.w3.org/2000/svg">
<g id="icon">
<g id="Group 1013">
<path id="Vector 6" d="M1.25 10.6756L14.9989 2.68457L28.75 10.6756L14.9989 18.5562L1.25 10.6756Z" stroke="#1428A0" stroke-width="2.08813" stroke-linejoin="round"/>
<path id="Vector 7" d="M23.5318 21.2127L23.9171 17.6458C23.9621 17.2287 23.5216 16.9315 23.1517 17.1296L15.5254 21.2127C15.2066 21.3834 14.8222 21.377 14.5093 21.1957L4.46226 15.3764C4.09587 15.1642 3.64255 15.4535 3.68071 15.8752L4.01432 19.5616C4.02981 19.7328 4.12855 19.8854 4.27836 19.9696L14.4403 25.6838C14.7969 25.8843 15.2311 25.8894 15.5922 25.6972L23.258 21.6174C23.4107 21.5362 23.5132 21.3846 23.5318 21.2127Z" fill="#1428A0"/>
<path id="Vector" d="M25.5216 20.6086V16.2322C25.5216 16.0526 25.6139 15.8856 25.766 15.7901L26.9188 15.0661C27.0578 14.9788 27.2386 15.0787 27.2386 15.243V20.6619C27.6204 20.9105 27.8778 21.3366 27.8778 21.8248C27.8778 22.1533 27.7535 22.4462 27.5671 22.6859C28.0642 24.0796 28.3927 26.0149 28.3749 26.4943C28.3572 27.2577 24.2167 27.2577 24.2344 26.4943C24.2433 26.0149 24.5895 24.0885 25.0955 22.6948C24.9091 22.4551 24.7848 22.1533 24.7848 21.8248C24.7848 21.3011 25.0867 20.8395 25.5216 20.6086Z" fill="#1428A0"/>
</g>
</g>
</svg>
