<svg width="30" height="30" viewBox="0 0 30 30" fill="none" xmlns="http://www.w3.org/2000/svg">
<g id="icon">
<path id="Vector" d="M28.1142 7.14319V4.13672H16.3308C15.5172 4.13672 15.2101 4.47617 15.0054 4.97186C14.806 4.47617 14.4989 4.13672 13.68 4.13672H1.89655V7.14319H0V25.6777H10.6304L11.3631 26.4104C11.6002 26.6475 14.6606 26.7822 15 26.7822C15.3394 26.7822 18.3998 26.6475 18.6369 26.4104L19.3696 25.6777H30V7.14319H28.1035H28.1142ZM13.8685 23.7326C13.4968 23.3339 12.9687 23.0861 12.3868 23.0861H3.52371V5.75849C4.89225 5.75849 11.0991 5.75849 13.3297 5.76926C13.6261 5.76926 13.8685 6.01172 13.8685 6.30805V23.7326ZM26.4925 23.0807H17.6293C17.042 23.0807 16.514 23.3285 16.1476 23.7272C16.1476 19.918 16.153 9.30375 16.1584 6.29189C16.1584 5.99556 16.4009 5.7531 16.6972 5.7531H26.4871V23.0807H26.4925Z" fill="#1428A0"/>
<path id="Vector_2" d="M10.0546 13.7974L7.57611 11.7338L5.09766 13.7974V3H10.0546V13.7974Z" fill="#1428A0"/>
</g>
</svg>
