<svg width="198" height="23" viewBox="0 0 198 23" fill="none" xmlns="http://www.w3.org/2000/svg">
<path d="M8.57687 3.66406C8.56906 4.59375 8.74094 5.48438 9.0925 6.33594C9.45187 7.1875 9.99875 7.94531 10.7331 8.60938C11.4675 9.27344 12.3816 9.78125 13.4753 10.1328L11.8816 12.4531C10.7878 12.0703 9.84641 11.5273 9.05734 10.8242C8.26828 10.1133 7.63547 9.27344 7.15891 8.30469C6.67453 9.42188 5.99875 10.3906 5.13156 11.2109C4.27219 12.0312 3.23312 12.6562 2.01437 13.0859L0.420624 10.7188C1.56906 10.3359 2.52609 9.78906 3.29172 9.07812C4.06516 8.35938 4.63547 7.54688 5.00266 6.64062C5.37766 5.72656 5.56906 4.76562 5.57687 3.75781V1.92969H8.57687V3.66406ZM3.67844 14H17.6237V21.9219H3.67844V14ZM14.6706 19.5312V16.3672H6.63156V19.5312H14.6706ZM14.6237 0.828125H17.6237V5.70312H20.5066V8.11719H17.6237V13.1562H14.6237V0.828125ZM28.6666 3.73438C28.6587 4.71875 28.8267 5.64062 29.1705 6.5C29.522 7.35938 30.0611 8.11719 30.7877 8.77344C31.522 9.42969 32.44 9.92969 33.5416 10.2734L31.9712 12.6172C30.8462 12.2266 29.8853 11.6797 29.0884 10.9766C28.2994 10.2656 27.6744 9.41797 27.2134 8.43359C26.7291 9.58203 26.0494 10.5703 25.1744 11.3984C24.2994 12.2266 23.2369 12.8516 21.9869 13.2734L20.4166 10.8828C21.5884 10.5078 22.565 9.96484 23.3462 9.25391C24.1275 8.53516 24.7017 7.71875 25.0689 6.80469C25.4439 5.88281 25.6353 4.90625 25.6431 3.875V1.92969H28.6666V3.73438ZM23.9556 18.0312C23.9556 17.1641 24.2486 16.418 24.8345 15.793C25.4283 15.168 26.2759 14.6953 27.3775 14.375C28.4791 14.0469 29.7837 13.8828 31.2916 13.8828C32.8072 13.8828 34.1158 14.0469 35.2173 14.375C36.3189 14.6953 37.1666 15.168 37.7603 15.793C38.3541 16.418 38.6509 17.1641 38.6509 18.0312C38.6509 18.8984 38.3541 19.6406 37.7603 20.2578C37.1666 20.8828 36.3189 21.3555 35.2173 21.6758C34.1158 21.9961 32.8072 22.1562 31.2916 22.1562C29.7759 22.1562 28.4673 21.9961 27.3658 21.6758C26.272 21.3555 25.4283 20.8828 24.8345 20.2578C24.2486 19.6406 23.9556 18.8984 23.9556 18.0312ZM26.9322 18.0312C26.9322 18.625 27.3033 19.0742 28.0455 19.3789C28.7955 19.6836 29.8775 19.8359 31.2916 19.8359C32.7134 19.8359 33.7955 19.6836 34.5377 19.3789C35.2877 19.0742 35.6666 18.625 35.6744 18.0312C35.6666 17.4219 35.2916 16.9648 34.5494 16.6602C33.8072 16.3555 32.7212 16.2031 31.2916 16.2031C29.8697 16.2031 28.7877 16.3594 28.0455 16.6719C27.3033 16.9766 26.9322 17.4297 26.9322 18.0312ZM31.5962 4.74219H35.6041V0.828125H38.5806V13.3203H35.6041V7.17969H31.5962V4.74219ZM51.8734 17.0703H41.5609V2.75H51.8734V17.0703ZM48.9672 14.7031V5.09375H44.5609V14.7031H48.9672ZM55.3422 0.828125H58.3656V22.2031H55.3422V0.828125ZM69.1037 11.1172H63.8772V14.9375C65.0256 14.9219 66.0803 14.8828 67.0412 14.8203C68.01 14.7578 69.0022 14.6484 70.0178 14.4922L70.2287 16.8828C68.9397 17.1016 67.7053 17.2461 66.5256 17.3164C65.3459 17.3867 64.0022 17.4219 62.4944 17.4219H61.0178V8.72656H66.2209V5.30469H60.9944V2.89062H69.1037V11.1172ZM71.2131 1.17969H73.9553V8.89062H76.0178V0.828125H78.8537V22.1562H76.0178V11.3047H73.9553V21.125H71.2131V1.17969ZM98.2403 22.1562H95.2169V0.828125H98.2403V22.1562ZM80.3809 16.1094C82.2012 15.25 83.7012 14.293 84.8809 13.2383C86.0684 12.1836 86.9747 11.0156 87.5997 9.73438C88.2325 8.44531 88.6309 7 88.795 5.39844H81.5294V3.05469H91.8419C91.8341 5.33594 91.5255 7.41016 90.9161 9.27734C90.3067 11.1445 89.2716 12.8594 87.8106 14.4219C86.3575 15.9844 84.4044 17.3438 81.9512 18.5L80.3809 16.1094ZM111.486 1.39062C111.486 2.10156 111.764 2.78516 112.318 3.44141C112.873 4.09766 113.693 4.66016 114.779 5.12891C115.865 5.59766 117.174 5.91406 118.705 6.07812L117.721 8.32812C115.893 8.125 114.31 7.69531 112.975 7.03906C111.639 6.38281 110.623 5.55859 109.928 4.56641C109.225 5.55859 108.209 6.38281 106.881 7.03906C105.553 7.69531 103.986 8.125 102.182 8.32812L101.174 6.07812C102.705 5.91406 104.014 5.59766 105.1 5.12891C106.193 4.66016 107.018 4.09766 107.572 3.44141C108.127 2.78516 108.408 2.10156 108.416 1.39062V0.945312H111.486V1.39062ZM100.213 9.21875H119.666V11.5625H111.416V12.9688H117.299V18.4766H105.416V19.7656H117.861V22.0156H102.486V16.3672H114.346V15.2422H102.463V12.9688H108.416V11.5625H100.213V9.21875ZM139.568 13.1562H134.881V15.1484H137.201V22.1562H134.224V17.4922H122.271V15.1484H124.709V13.1562H120.115V10.7891H139.568V13.1562ZM122.06 5.44531C122.06 4.58594 122.377 3.83984 123.01 3.20703C123.65 2.57422 124.556 2.08984 125.728 1.75391C126.908 1.41797 128.279 1.25 129.842 1.25C131.396 1.25 132.756 1.41797 133.92 1.75391C135.092 2.08984 135.998 2.57422 136.638 3.20703C137.279 3.83984 137.599 4.58594 137.599 5.44531C137.599 6.30469 137.279 7.05469 136.638 7.69531C135.998 8.32812 135.092 8.81641 133.92 9.16016C132.756 9.49609 131.396 9.66406 129.842 9.66406C128.279 9.66406 126.908 9.49609 125.728 9.16016C124.556 8.81641 123.65 8.32812 123.01 7.69531C122.377 7.05469 122.06 6.30469 122.06 5.44531ZM125.177 5.44531C125.17 6.07031 125.564 6.54297 126.361 6.86328C127.166 7.18359 128.326 7.34375 129.842 7.34375C131.334 7.34375 132.482 7.18359 133.287 6.86328C134.099 6.54297 134.506 6.07031 134.506 5.44531C134.506 4.84375 134.107 4.38281 133.31 4.0625C132.513 3.73438 131.385 3.57031 129.924 3.57031C128.385 3.57031 127.205 3.73047 126.385 4.05078C125.572 4.36328 125.17 4.82812 125.177 5.44531ZM131.927 15.1484V13.1562H127.732V15.1484H131.927ZM148.08 3.73438C148.072 4.71875 148.24 5.64062 148.584 6.5C148.935 7.35938 149.474 8.11719 150.201 8.77344C150.935 9.42969 151.853 9.92969 152.955 10.2734L151.384 12.6172C150.259 12.2266 149.298 11.6797 148.502 10.9766C147.712 10.2656 147.087 9.41797 146.627 8.43359C146.142 9.58203 145.462 10.5703 144.587 11.3984C143.712 12.2266 142.65 12.8516 141.4 13.2734L139.83 10.8828C141.002 10.5078 141.978 9.96484 142.759 9.25391C143.541 8.53516 144.115 7.71875 144.482 6.80469C144.857 5.88281 145.048 4.90625 145.056 3.875V1.92969H148.08V3.73438ZM143.369 18.0312C143.369 17.1641 143.662 16.418 144.248 15.793C144.841 15.168 145.689 14.6953 146.791 14.375C147.892 14.0469 149.197 13.8828 150.705 13.8828C152.22 13.8828 153.529 14.0469 154.63 14.375C155.732 14.6953 156.58 15.168 157.173 15.793C157.767 16.418 158.064 17.1641 158.064 18.0312C158.064 18.8984 157.767 19.6406 157.173 20.2578C156.58 20.8828 155.732 21.3555 154.63 21.6758C153.529 21.9961 152.22 22.1562 150.705 22.1562C149.189 22.1562 147.88 21.9961 146.779 21.6758C145.685 21.3555 144.841 20.8828 144.248 20.2578C143.662 19.6406 143.369 18.8984 143.369 18.0312ZM146.345 18.0312C146.345 18.625 146.716 19.0742 147.459 19.3789C148.209 19.6836 149.291 19.8359 150.705 19.8359C152.127 19.8359 153.209 19.6836 153.951 19.3789C154.701 19.0742 155.08 18.625 155.087 18.0312C155.08 17.4219 154.705 16.9648 153.962 16.6602C153.22 16.3555 152.134 16.2031 150.705 16.2031C149.283 16.2031 148.201 16.3594 147.459 16.6719C146.716 16.9766 146.345 17.4297 146.345 18.0312ZM151.009 4.74219H155.017V0.828125H157.994V13.3203H155.017V7.17969H151.009V4.74219ZM167.771 5.65625C167.763 6.96094 167.947 8.22656 168.322 9.45312C168.697 10.6719 169.263 11.7656 170.021 12.7344C170.779 13.7031 171.708 14.4531 172.81 14.9844L171.005 17.375C169.896 16.8203 168.947 16.0469 168.158 15.0547C167.369 14.0547 166.747 12.8906 166.294 11.5625C165.81 12.9922 165.15 14.2422 164.314 15.3125C163.478 16.375 162.474 17.1953 161.302 17.7734L159.451 15.3594C160.615 14.8281 161.595 14.0586 162.392 13.0508C163.189 12.0352 163.783 10.8906 164.173 9.61719C164.572 8.33594 164.771 7.01562 164.771 5.65625V2.46875H167.771V5.65625ZM173.747 0.828125H176.747V9.05469H179.888V11.5859H176.747V22.1562H173.747V0.828125ZM185.775 1.74219C186.665 1.73437 187.49 1.89063 188.247 2.21094C189.013 2.53125 189.654 2.98047 190.169 3.55859C190.693 4.13672 191.052 4.80469 191.247 5.5625H194.822V0.828125H197.798V12.2891H194.822V7.95312H191.259C191.079 8.72656 190.728 9.41406 190.204 10.0156C189.689 10.6094 189.048 11.0703 188.283 11.3984C187.517 11.7266 186.681 11.8906 185.775 11.8906C184.697 11.8906 183.724 11.6719 182.857 11.2344C181.99 10.7969 181.31 10.1914 180.818 9.41797C180.333 8.63672 180.095 7.75781 180.103 6.78125C180.095 5.82031 180.333 4.95703 180.818 4.19141C181.31 3.41797 181.99 2.81641 182.857 2.38672C183.724 1.94922 184.697 1.73437 185.775 1.74219ZM182.939 6.78125C182.939 7.30469 183.056 7.76562 183.29 8.16406C183.533 8.55469 183.868 8.85547 184.298 9.06641C184.728 9.27734 185.22 9.38281 185.775 9.38281C186.314 9.38281 186.794 9.27734 187.216 9.06641C187.638 8.84766 187.966 8.54297 188.2 8.15234C188.443 7.76172 188.564 7.30469 188.564 6.78125C188.564 6.25781 188.443 5.80469 188.2 5.42188C187.966 5.03125 187.638 4.73437 187.216 4.53125C186.794 4.32813 186.314 4.22656 185.775 4.22656C185.22 4.22656 184.728 4.32813 184.298 4.53125C183.868 4.73437 183.533 5.03125 183.29 5.42188C183.056 5.80469 182.939 6.25781 182.939 6.78125ZM183.572 13.2266H186.525V15.2891H194.822V13.2266H197.798V21.9219H183.572V13.2266ZM194.822 19.5078V17.5859H186.525V19.5078H194.822Z" fill="white"/>
</svg>
